<svg xmlns="http://www.w3.org/2000/svg" width="117" height="53" fill="none" viewBox="0 0 117 53">
  <path fill="#000" d="m16.644 28.87 8.49-27.324h6.67L17.15 43.626c-2.269 6.065-5.874 9.097-10.815 9.097l-1.18-.1-2.324-.439V47.13l1.685.135c2.111 0 3.75-.427 4.919-1.28 1.19-.854 2.167-2.415 2.93-4.683l1.382-3.706L.741 1.546h6.806l9.097 27.324Zm35.41 9.804c-4.942 0-8.963-1.617-12.062-4.852-3.1-3.257-4.65-7.603-4.65-13.038v-1.146c0-3.616.685-6.84 2.056-9.67 1.392-2.852 3.324-5.075 5.794-6.67C45.685 1.68 48.381.872 51.278.872c4.74 0 8.423 1.561 11.051 4.683s3.942 7.592 3.942 13.41v2.594H41.575c.09 3.593 1.134 6.502 3.133 8.726 2.022 2.2 4.583 3.301 7.682 3.301 2.201 0 4.066-.449 5.593-1.347 1.527-.899 2.864-2.09 4.01-3.571l3.806 2.964c-3.054 4.695-7.636 7.042-13.746 7.042Zm-.776-32.68c-2.515 0-4.627.92-6.334 2.762-1.707 1.82-2.762 4.38-3.167 7.681h18.261v-.471c-.18-3.167-1.033-5.615-2.56-7.345-1.528-1.752-3.594-2.628-6.2-2.628ZM94.74 28.33c0-1.685-.64-2.988-1.92-3.909-1.258-.943-3.47-1.752-6.637-2.425-3.145-.674-5.65-1.483-7.514-2.426-1.841-.944-3.212-2.067-4.11-3.37-.876-1.302-1.314-2.852-1.314-4.649 0-2.987 1.258-5.514 3.774-7.58 2.538-2.067 5.772-3.1 9.703-3.1 4.133 0 7.48 1.067 10.04 3.2 2.583 2.135 3.874 4.864 3.874 8.188H94.37c0-1.707-.73-3.178-2.19-4.414-1.438-1.235-3.257-1.853-5.458-1.853-2.269 0-4.043.494-5.324 1.483-1.28.988-1.92 2.28-1.92 3.874 0 1.505.595 2.64 1.786 3.403 1.19.764 3.335 1.494 6.435 2.19 3.122.696 5.649 1.527 7.58 2.493 1.932.966 3.358 2.134 4.28 3.504.942 1.348 1.414 2.998 1.414 4.953 0 3.256-1.303 5.873-3.908 7.85-2.605 1.954-5.986 2.93-10.141 2.93-2.92 0-5.503-.516-7.75-1.549-2.245-1.033-4.009-2.47-5.289-4.313C72.627 30.948 72 28.938 72 26.782h6.232c.113 2.089.944 3.75 2.494 4.986 1.572 1.213 3.638 1.82 6.199 1.82 2.358 0 4.245-.472 5.66-1.416 1.438-.965 2.156-2.246 2.156-3.84Zm14.488 6.4c0-1.077.314-1.976.943-2.694.651-.72 1.617-1.078 2.897-1.078 1.281 0 2.246.359 2.898 1.078.674.718 1.011 1.617 1.011 2.695 0 1.033-.337 1.898-1.011 2.594-.652.697-1.617 1.045-2.898 1.045-1.28 0-2.246-.349-2.897-1.045-.629-.696-.943-1.56-.943-2.594Z"/>
</svg>
